<svg width="24" height="24" viewBox="0 0 24 24" fill="none" xmlns="http://www.w3.org/2000/svg">
<path d="M6.25846 5.12303C6.17412 5.04475 6.06354 5.00087 5.94848 5.00001C5.83341 4.99916 5.72219 5.04139 5.6367 5.11841C5.55121 5.19543 5.49764 5.30166 5.48652 5.41619C5.47541 5.53072 5.50756 5.64526 5.57665 5.73728L7.17982 7.50323C4.31744 9.18473 3.09279 11.8797 3.03981 12.0003C3.01356 12.0592 3 12.1231 3 12.1876C3 12.2522 3.01356 12.316 3.03981 12.375C3.06592 12.4341 3.70473 13.8507 5.13132 15.2773C6.45502 16.5994 8.72926 18.1757 12.06 18.1757C13.4522 18.1842 14.8295 17.8894 16.0964 17.312L17.8623 19.2537C17.9446 19.3441 18.0594 19.3982 18.1815 19.4039C18.3036 19.4097 18.423 19.3667 18.5134 19.2844C18.6038 19.2022 18.6579 19.0874 18.6636 18.9653C18.6694 18.8432 18.6264 18.7238 18.5441 18.6333L6.25846 5.12303ZM9.99153 10.599L13.4467 14.4012C12.9279 14.7253 12.3118 14.857 11.7059 14.7733C11.1 14.6895 10.5427 14.3957 10.1313 13.943C9.71993 13.4903 9.48058 12.9075 9.45503 12.2963C9.42949 11.6852 9.61937 11.0845 9.99153 10.599ZM12.06 17.2544C9.65063 17.2544 7.54684 16.3775 5.80622 14.6492C5.07638 13.9242 4.45891 13.0943 3.97423 12.1868C4.30362 11.5572 5.51752 9.48571 7.81326 8.20117L9.36423 9.90646C8.81204 10.5608 8.51633 11.3934 8.53213 12.2495C8.54793 13.1056 8.87416 13.9267 9.45013 14.5602C10.0261 15.1938 10.8126 15.5965 11.6633 15.6935C12.5139 15.7905 13.3709 15.5752 14.0747 15.0876L15.4422 16.5925C14.3701 17.0361 13.2202 17.2612 12.06 17.2544ZM12.5514 9.62238C12.4314 9.59947 12.3253 9.52981 12.2566 9.42873C12.188 9.32764 12.1622 9.20342 12.1852 9.08338C12.2081 8.96333 12.2777 8.85731 12.3788 8.78862C12.4799 8.71994 12.6041 8.69422 12.7242 8.71713C13.4743 8.86287 14.1573 9.24711 14.6713 9.81259C15.1853 10.3781 15.5029 11.0945 15.5766 11.8552C15.5822 11.9154 15.5758 11.9762 15.558 12.034C15.5401 12.0918 15.511 12.1455 15.4723 12.192C15.4337 12.2386 15.3863 12.2771 15.3327 12.3053C15.2792 12.3335 15.2207 12.3509 15.1604 12.3565H15.1174C15.0022 12.357 14.891 12.3143 14.8057 12.2369C14.7204 12.1594 14.6673 12.0528 14.6567 11.9381C14.602 11.3768 14.3675 10.8483 13.9881 10.431C13.6088 10.0138 13.1049 9.73018 12.5514 9.62238ZM21.0802 12.375C21.0487 12.4456 20.284 14.1409 18.5572 15.6857C18.5124 15.7277 18.4597 15.7603 18.4021 15.7816C18.3445 15.8029 18.2833 15.8125 18.2219 15.8098C18.1606 15.8071 18.1004 15.7922 18.0449 15.7659C17.9895 15.7397 17.9398 15.7026 17.8988 15.6568C17.8579 15.6111 17.8265 15.5576 17.8065 15.4995C17.7866 15.4415 17.7784 15.38 17.7825 15.3188C17.7866 15.2575 17.8029 15.1977 17.8305 15.1429C17.858 15.088 17.8963 15.0392 17.9429 14.9993C18.8355 14.1974 19.581 13.2456 20.1458 12.1868C19.661 11.2795 19.0435 10.4496 18.3138 9.72449C16.5732 7.99616 14.4694 7.11933 12.06 7.11933C11.5535 7.11872 11.0479 7.15981 10.5482 7.24218C10.488 7.25352 10.4262 7.25275 10.3663 7.23992C10.3065 7.2271 10.2497 7.20246 10.1995 7.16746C10.1493 7.13246 10.1065 7.0878 10.0737 7.03608C10.041 6.98436 10.0188 6.92663 10.0086 6.86626C9.99841 6.80589 10.0003 6.74409 10.0143 6.68447C10.0282 6.62486 10.0539 6.56862 10.0899 6.51905C10.1258 6.46948 10.1713 6.42757 10.2236 6.39577C10.2759 6.36398 10.3341 6.34293 10.3946 6.33386C10.945 6.24249 11.5021 6.19704 12.06 6.19796C15.3907 6.19796 17.665 7.77503 18.9887 9.0972C20.4153 10.5238 21.0541 11.9381 21.0802 12.0003C21.1064 12.0592 21.12 12.1231 21.12 12.1876C21.12 12.2522 21.1064 12.316 21.0802 12.375Z" fill="#8997B3"/>
</svg>
