<svg width="24" height="24" viewBox="0 0 24 24" fill="none" xmlns="http://www.w3.org/2000/svg">
<path d="M12 19.1111C16.4182 19.1111 20 15.4124 20 12.8889C20 10.3653 16.4182 6.66667 12 6.66667C7.58178 6.66667 4 10.368 4 12.8889C4 15.4098 7.58178 19.1111 12 19.1111Z" stroke="#8997B3" stroke-linejoin="round"/>
<path d="M12 15.5556C12.7073 15.5556 13.3855 15.2746 13.8856 14.7745C14.3857 14.2744 14.6667 13.5961 14.6667 12.8889C14.6667 12.1816 14.3857 11.5034 13.8856 11.0033C13.3855 10.5032 12.7073 10.2222 12 10.2222C11.2928 10.2222 10.6145 10.5032 10.1144 11.0033C9.61429 11.5034 9.33334 12.1816 9.33334 12.8889C9.33334 13.5961 9.61429 14.2744 10.1144 14.7745C10.6145 15.2746 11.2928 15.5556 12 15.5556Z" stroke="#8997B3" stroke-linejoin="round"/>
<path d="M7.22844 5.896L8.38133 7.50489M17.1667 6.09333L16.0133 7.70222M12.004 4V6.66667" stroke="#8997B3" stroke-linecap="round"/>
</svg>
