<svg width="134" height="43" viewBox="0 0 134 43" fill="none" xmlns="http://www.w3.org/2000/svg">
<path d="M2.02273 6.72727H8.09091L14.5 22.3636H14.7727L21.1818 6.72727H27.25V30H22.4773V14.8523H22.2841L16.2614 29.8864H13.0114L6.98864 14.7955H6.79545V30H2.02273V6.72727ZM39.0994 30.3409C37.3343 30.3409 35.8078 29.9659 34.5199 29.2159C33.2396 28.4583 32.2509 27.4053 31.554 26.0568C30.857 24.7008 30.5085 23.1288 30.5085 21.3409C30.5085 19.5379 30.857 17.9621 31.554 16.6136C32.2509 15.2576 33.2396 14.2045 34.5199 13.4545C35.8078 12.697 37.3343 12.3182 39.0994 12.3182C40.8646 12.3182 42.3873 12.697 43.6676 13.4545C44.9555 14.2045 45.9479 15.2576 46.6449 16.6136C47.3419 17.9621 47.6903 19.5379 47.6903 21.3409C47.6903 23.1288 47.3419 24.7008 46.6449 26.0568C45.9479 27.4053 44.9555 28.4583 43.6676 29.2159C42.3873 29.9659 40.8646 30.3409 39.0994 30.3409ZM39.1222 26.5909C39.9252 26.5909 40.5956 26.3636 41.1335 25.9091C41.6714 25.447 42.0767 24.8182 42.3494 24.0227C42.6297 23.2273 42.7699 22.322 42.7699 21.3068C42.7699 20.2917 42.6297 19.3864 42.3494 18.5909C42.0767 17.7955 41.6714 17.1667 41.1335 16.7045C40.5956 16.2424 39.9252 16.0114 39.1222 16.0114C38.3116 16.0114 37.6297 16.2424 37.0767 16.7045C36.5313 17.1667 36.1184 17.7955 35.8381 18.5909C35.5653 19.3864 35.429 20.2917 35.429 21.3068C35.429 22.322 35.5653 23.2273 35.8381 24.0227C36.1184 24.8182 36.5313 25.447 37.0767 25.9091C37.6297 26.3636 38.3116 26.5909 39.1222 26.5909ZM58.7244 30.3409C56.9593 30.3409 55.4328 29.9659 54.1449 29.2159C52.8646 28.4583 51.8759 27.4053 51.179 26.0568C50.482 24.7008 50.1335 23.1288 50.1335 21.3409C50.1335 19.5379 50.482 17.9621 51.179 16.6136C51.8759 15.2576 52.8646 14.2045 54.1449 13.4545C55.4328 12.697 56.9593 12.3182 58.7244 12.3182C60.4896 12.3182 62.0123 12.697 63.2926 13.4545C64.5805 14.2045 65.5729 15.2576 66.2699 16.6136C66.9669 17.9621 67.3153 19.5379 67.3153 21.3409C67.3153 23.1288 66.9669 24.7008 66.2699 26.0568C65.5729 27.4053 64.5805 28.4583 63.2926 29.2159C62.0123 29.9659 60.4896 30.3409 58.7244 30.3409ZM58.7472 26.5909C59.5502 26.5909 60.2206 26.3636 60.7585 25.9091C61.2964 25.447 61.7017 24.8182 61.9744 24.0227C62.2547 23.2273 62.3949 22.322 62.3949 21.3068C62.3949 20.2917 62.2547 19.3864 61.9744 18.5909C61.7017 17.7955 61.2964 17.1667 60.7585 16.7045C60.2206 16.2424 59.5502 16.0114 58.7472 16.0114C57.9366 16.0114 57.2547 16.2424 56.7017 16.7045C56.1563 17.1667 55.7434 17.7955 55.4631 18.5909C55.1903 19.3864 55.054 20.2917 55.054 21.3068C55.054 22.322 55.1903 23.2273 55.4631 24.0227C55.7434 24.8182 56.1563 25.447 56.7017 25.9091C57.2547 26.3636 57.9366 26.5909 58.7472 26.5909ZM76.8949 30.2841C75.5691 30.2841 74.3684 29.9432 73.2926 29.2614C72.2244 28.572 71.3759 27.5606 70.7472 26.2273C70.1259 24.8864 69.8153 23.2424 69.8153 21.2955C69.8153 19.2955 70.1373 17.6326 70.7812 16.3068C71.4252 14.9735 72.2813 13.9773 73.3494 13.3182C74.4252 12.6515 75.6032 12.3182 76.8835 12.3182C77.8608 12.3182 78.6752 12.4848 79.3267 12.8182C79.9858 13.1439 80.5161 13.553 80.9176 14.0455C81.3267 14.5303 81.6373 15.0076 81.8494 15.4773H81.9972V6.72727H86.8267V30H82.054V27.2045H81.8494C81.6222 27.6894 81.3002 28.1705 80.8835 28.6477C80.4744 29.1174 79.9403 29.5076 79.2812 29.8182C78.6297 30.1288 77.8343 30.2841 76.8949 30.2841ZM78.429 26.4318C79.2093 26.4318 79.8684 26.2197 80.4062 25.7955C80.9517 25.3636 81.3684 24.7614 81.6562 23.9886C81.9517 23.2159 82.0994 22.3106 82.0994 21.2727C82.0994 20.2348 81.9555 19.3333 81.6676 18.5682C81.3797 17.803 80.9631 17.2121 80.4176 16.7955C79.8722 16.3788 79.2093 16.1705 78.429 16.1705C77.6335 16.1705 76.9631 16.3864 76.4176 16.8182C75.8722 17.25 75.4593 17.8485 75.179 18.6136C74.8987 19.3788 74.7585 20.2652 74.7585 21.2727C74.7585 22.2879 74.8987 23.1856 75.179 23.9659C75.4669 24.7386 75.8797 25.3447 76.4176 25.7841C76.9631 26.2159 77.6335 26.4318 78.429 26.4318ZM93.7955 36.5455C93.1818 36.5455 92.6061 36.4962 92.0682 36.3977C91.5379 36.3068 91.0985 36.1894 90.75 36.0455L91.8409 32.4318C92.4091 32.6061 92.9205 32.7008 93.375 32.7159C93.8371 32.7311 94.2348 32.625 94.5682 32.3977C94.9091 32.1705 95.1856 31.7841 95.3977 31.2386L95.6818 30.5L89.4205 12.5455H94.5114L98.125 25.3636H98.3068L101.955 12.5455H107.08L100.295 31.8864C99.9697 32.8258 99.5265 33.6439 98.9659 34.3409C98.4129 35.0455 97.7121 35.5871 96.8636 35.9659C96.0152 36.3523 94.9924 36.5455 93.7955 36.5455Z" fill="#EFF4FF"/>
<path d="M124.357 18.6187C124.812 18.0769 125.463 17.738 126.168 17.6765C126.873 17.615 127.573 17.8359 128.115 18.2907C128.656 18.7454 128.995 19.3968 129.057 20.1014C129.118 20.806 128.897 21.5063 128.443 22.048L116.444 36.3467C116.222 36.6233 115.946 36.8527 115.634 37.0216C115.322 37.1904 114.979 37.2953 114.626 37.33C114.273 37.3647 113.916 37.3285 113.577 37.2236C113.238 37.1188 112.924 36.9473 112.652 36.7192C112.38 36.4911 112.156 36.2111 111.994 35.8955C111.832 35.5799 111.734 35.235 111.707 34.8812C111.679 34.5274 111.723 34.1716 111.835 33.8349C111.947 33.4981 112.125 33.1871 112.359 32.92L124.357 18.6187ZM106 27.9867C106 27.2794 106.281 26.6011 106.781 26.1011C107.281 25.601 107.959 25.32 108.667 25.32C109.374 25.32 110.052 25.601 110.552 26.1011C111.052 26.6011 111.333 27.2794 111.333 27.9867C111.333 28.6939 111.052 29.3722 110.552 29.8723C110.052 30.3724 109.374 30.6533 108.667 30.6533C107.959 30.6533 107.281 30.3724 106.781 29.8723C106.281 29.3722 106 28.6939 106 27.9867Z" fill="#61FF9B"/>
</svg>
