<svg width="24" height="24" viewBox="0 0 24 24" fill="none" xmlns="http://www.w3.org/2000/svg">
<path d="M12 20C11.6762 20 11.4046 19.8903 11.1851 19.6709C10.9657 19.4514 10.8564 19.1802 10.8571 18.8571V13.1429H5.14286C4.81905 13.1429 4.54743 13.0331 4.328 12.8137C4.10858 12.5943 3.99924 12.323 4 12C4 11.6762 4.10972 11.4046 4.32915 11.1851C4.54858 10.9657 4.81981 10.8564 5.14286 10.8571H10.8571V5.14286C10.8571 4.81905 10.9669 4.54743 11.1863 4.328C11.4057 4.10858 11.677 3.99924 12 4C12.3238 4 12.5954 4.10972 12.8149 4.32915C13.0343 4.54858 13.1436 4.81981 13.1429 5.14286V10.8571H18.8571C19.181 10.8571 19.4526 10.9669 19.672 11.1863C19.8914 11.4057 20.0008 11.677 20 12C20 12.3238 19.8903 12.5954 19.6709 12.8149C19.4514 13.0343 19.1802 13.1436 18.8571 13.1429H13.1429V18.8571C13.1429 19.181 13.0331 19.4526 12.8137 19.672C12.5943 19.8914 12.323 20.0008 12 20Z" fill="#8997B3"/>
</svg>
