<svg width="24" height="24" viewBox="0 0 24 24" fill="none" xmlns="http://www.w3.org/2000/svg">
<path fill-rule="evenodd" clip-rule="evenodd" d="M11.0064 3C9.72963 3.00011 8.47135 3.30556 7.3366 3.89086C6.20184 4.47616 5.2235 5.32434 4.48321 6.36464C3.74293 7.40494 3.26215 8.6072 3.081 9.87109C2.89985 11.135 3.02358 12.4239 3.44186 13.6302C3.86014 14.8366 4.56085 15.9254 5.48552 16.8059C6.41019 17.6864 7.53201 18.333 8.75739 18.6917C9.98278 19.0504 11.2762 19.1109 12.5297 18.8682C13.7832 18.6254 14.9605 18.0863 15.9633 17.296L19.4036 20.7362C19.5812 20.9078 19.8192 21.0028 20.0662 21.0006C20.3132 20.9985 20.5494 20.8994 20.7241 20.7248C20.8988 20.5501 20.9978 20.3138 21 20.0669C21.0021 19.8199 20.9072 19.5819 20.7356 19.4042L17.2953 15.964C18.226 14.7833 18.8055 13.3644 18.9675 11.8698C19.1295 10.3751 18.8674 8.865 18.2112 7.51234C17.555 6.15967 16.5312 5.01907 15.2571 4.22107C13.9829 3.42306 12.5099 2.9999 11.0064 3ZM4.88335 11.0071C4.88335 9.38318 5.52846 7.82574 6.67676 6.67744C7.82506 5.52914 9.3825 4.88403 11.0064 4.88403C12.6304 4.88403 14.1878 5.52914 15.3361 6.67744C16.4844 7.82574 17.1295 9.38318 17.1295 11.0071C17.1295 12.6311 16.4844 14.1885 15.3361 15.3368C14.1878 16.4851 12.6304 17.1302 11.0064 17.1302C9.3825 17.1302 7.82506 16.4851 6.67676 15.3368C5.52846 14.1885 4.88335 12.6311 4.88335 11.0071Z" fill="#8997B3"/>
</svg>
